<?xml version="1.0" standalone="no"?>
<!DOCTYPE svg PUBLIC "-//W3C//DTD SVG 20010904//EN"
 "http://www.w3.org/TR/2001/REC-SVG-20010904/DTD/svg10.dtd">
<svg version="1.0" xmlns="http://www.w3.org/2000/svg"
 width="512.000000pt" height="512.000000pt" viewBox="0 0 512.000000 512.000000"
 preserveAspectRatio="xMidYMid meet">
<metadata>
Created by potrace 1.11, written by Peter Selinger 2001-2013
</metadata>
<g transform="translate(0.000000,512.000000) scale(0.100000,-0.100000)"
fill="#000000" stroke="none">
<path d="M1362 4738 c8 -13 277 -455 598 -983 321 -528 586 -964 590 -968 5
-6 1191 1922 1208 1965 2 5 -119 7 -269 6 l-274 -3 -307 -495 c-170 -272 -318
-512 -331 -532 l-22 -38 -322 533 -321 532 -282 3 -283 2 15 -22z"/>
<path d="M1124 4523 c-43 -70 -104 -170 -136 -222 -31 -52 -56 -97 -54 -100 2
-3 146 -246 320 -539 174 -293 316 -535 316 -537 0 -3 -292 -5 -648 -5 l-649
0 -136 -217 -137 -218 600 -3 c330 -1 870 -1 1200 0 l600 3 -581 955 c-319
525 -589 968 -598 983 l-18 29 -79 -129z"/>
<path d="M3777 4428 c-75 -122 -343 -565 -596 -983 l-461 -760 600 -3 c330 -1
870 -1 1199 0 l599 3 -132 215 -131 215 -654 3 c-615 2 -653 3 -646 20 3 9
145 247 315 528 170 281 312 518 315 526 6 14 -226 410 -260 446 -10 11 -37
-26 -148 -210z"/>
<path d="M12 2490 c2 -5 59 -102 128 -214 l125 -205 654 -1 c617 0 653 -1 649
-17 -3 -10 -147 -253 -322 -541 -174 -288 -316 -525 -316 -529 0 -10 265 -443
271 -443 6 0 1189 1945 1189 1955 0 3 -536 5 -1191 5 -764 0 -1189 -3 -1187
-10z"/>
<path d="M2732 2491 c12 -35 1184 -1958 1190 -1953 26 26 259 427 255 440 -2
10 -144 255 -315 545 -172 291 -312 531 -312 533 0 2 291 5 647 6 l647 3 133
210 c73 116 133 213 133 218 0 4 -536 7 -1191 7 -719 0 -1189 -4 -1187 -9z"/>
<path d="M2080 1569 c-261 -430 -532 -875 -602 -990 l-128 -209 273 0 272 1
330 534 c182 294 332 535 335 535 3 0 150 -240 327 -532 l321 -533 276 -3
c152 -1 276 1 276 4 0 10 -1194 1973 -1200 1973 -3 0 -219 -351 -480 -780z"/>
</g>
</svg>
